<svg xmlns="http://www.w3.org/2000/svg" viewBox="0 0 275.37 275.37">
  <defs>
    <style>
      .cls-1 {
        fill: none;
        stroke: #76a4fb;
        stroke-miterlimit: 10;
        stroke-width: 9px;
      }

      .cls-2 {
        fill: #76a4fb;
      }
    </style>
  </defs>
  <title>about_img</title>
  <g id="Layer_2" data-name="Layer 2">
    <g id="Layer_1-2" data-name="Layer 1">
      <circle class="cls-1" cx="137.69" cy="137.69" r="133.19" />
      <path class="cls-2"
        d="M45.54,231.05c9.28-15.07,24.7-23.8,42.21-24.9,7.23-.46,15-.66,21.54-4.21A18.42,18.42,0,0,0,118.62,183c-1.29-9.47-8-16.07-14.16-22.74-7.21-7.73-10-16.53-11.95-26.73-3.66-19.11-5.38-39.56.92-58.31S116.56,40.46,137,40.08c6.43-.12,6.45-10.12,0-10-17.75.33-33.62,10.34-44,24.36C81.2,70.34,78.37,91.3,79.51,110.57s3.68,41.33,17.29,56.12c5,5.47,17.36,16.36,10.13,24.57-4.85,5.51-15.22,4.55-21.8,5.06A62.18,62.18,0,0,0,36.91,226c-3.38,5.49,5.26,10.52,8.63,5Z" />
      <path class="cls-2"
        d="M237.55,226.94c-8.92-15.18-24.24-26.67-41.73-29.76-7.69-1.36-15.91-.44-23.4-2.8-11.15-3.52-7.13-14.71-1.16-21.45,6.65-7.5,13-13.83,16.45-23.5s4.78-20.09,5.93-30.13c2.26-19.65,1.17-40.84-8.59-58.5-9.58-17.36-28-30.34-48.09-30.72-6.44-.12-6.44,9.88,0,10,17.42.33,32.95,12.53,40.51,27.76,8.93,18,8.26,39.48,5.14,58.81-1.52,9.48-3,19.91-8.5,28-5.32,7.85-13.51,13.15-17.16,22.2-3.16,7.82-2.36,16.86,4.25,22.63,5.53,4.84,13.21,5.79,20.26,6.32,9.39.72,18.07,1.53,26.56,6a53,53,0,0,1,20.9,20.1c3.26,5.54,11.9.52,8.63-5.05Z" />
      <path class="cls-2"
        d="M184.49,40.64A67,67,0,0,1,203,77.13c2.35,13.76,5.15,30.68-1,43.78-1,2.18,2.22,4.08,3.24,1.9,6.48-13.85,3.88-30.32,1.65-44.92A71,71,0,0,0,187.15,38a1.88,1.88,0,0,0-2.66,2.65Z" />
    </g>
  </g>
</svg>