<svg xmlns="http://www.w3.org/2000/svg" viewBox="0 0 290.52 290.52">
  <defs>
    <style>.cls-1{fill:#4f81df;}.cls-2{fill:none;}</style>
  </defs>
  <title>icon_skills</title>
  <g id="Layer_2" data-name="Layer 2">
    <g id="Layer_1-2" data-name="Layer 1">
      <path class="cls-1" d="M245.83,65.58c-.88-4.31-3.76-4.95-6.39-1.42L203.2,112.8A8,8,0,0,1,192,114.43L161.07,91.38a8,8,0,0,1-1.64-11.19l36.25-48.65c2.63-3.53,1.19-6.28-3.21-6.12,0,0-41,1.55-58.12,20.8C112.74,70.56,128,123.66,128,123.66a18.27,18.27,0,0,1-2.57,14.1L42.2,249.52a8,8,0,0,0,1.64,11.19L63.28,275.2a8,8,0,0,0,11.2-1.63l52.81-70.88,9.56-12.83,20.9-28.05a16.93,16.93,0,0,1,12.77-6.07s46.56,2,65.46-19.3C255.81,114.1,245.83,65.58,245.83,65.58Z" />
      <rect class="cls-2" width="290.52" height="290.52" />
    </g>
  </g>
</svg>