<svg xmlns="http://www.w3.org/2000/svg" viewBox="0 0 290.52 290.52">
  <defs>
    <style>.cls-1{fill:none;}.cls-2{fill:#4f81df;}</style>
  </defs>
  <title>icon_about</title>
  <g id="Layer_2" data-name="Layer 2">
    <g id="Layer_1-2" data-name="Layer 1">
      <rect class="cls-1" width="290.52" height="290.52" />
      <path class="cls-2" d="M48.75,248.91l.5-.47c8.93-15,25.18-25.61,42.62-27.1,10.57-.91,23.92-.14,28.69-9.62,3.07-6.11.48-13.65-3.62-19.12s-9.6-9.81-13.42-15.48c-4.44-6.59-6.31-14.55-7.8-22.36-4.34-22.73-6-47.19,3.78-68.18C107.7,68.92,126.14,55,145,55s37.29,13.92,45.48,31.58c9.75,21,8.13,45.45,3.79,68.18-1.49,7.81-3.36,15.77-7.8,22.36-3.82,5.67-9.32,10-13.42,15.48s-6.69,13-3.62,19.12c4.76,9.48,18.11,8.71,28.68,9.62,17.81,1.52,34.37,12.57,43.17,28l.27.26a133.19,133.19,0,1,0-193-.53Z" />
    </g>
  </g>
</svg>