<svg xmlns="http://www.w3.org/2000/svg" viewBox="0 0 246.96 395.05">
  <defs>
    <style>
      .cls-1,
      .cls-2 {
        fill: #8fb5fd;
        filter: drop-shadow(0 0 1rem #8fb5fd);
      }

      .cls-1 {
        stroke: transparent;
        stroke-miterlimit: 10;
        stroke-width: 9px;
      }

      .cls-3 {
        fill: #33383d;
      }
    </style>
  </defs>
  <title>icon_bulb_dark_1</title>
  <g id="Layer_2" data-name="Layer 2">
    <g id="Layer_1-2" data-name="Layer 1">
      <path class="cls-1"
        d="M242.46,253.19c0,75.86-53.27,137.36-119,137.36s-119-61.5-119-137.36c0-54.33,27.32-101.29,67-123.57a10,10,0,0,0,5-8.69V85.06H171.3v36.37a10,10,0,0,0,5,8.64C215.5,152.53,242.46,199.22,242.46,253.19Z" />
      <path class="cls-2"
        d="M95.65,85.5c-3.21,20.61-1.08,41.64.91,62.4a113,113,0,0,1,.77,17.63A114.26,114.26,0,0,1,95,180.79c-3.64,18.42-7.7,37.71-19.87,52-1.9,2.22-4.82,4.47-7.46,3.23-2.26-1.07-2.76-4.08-2.51-6.57.6-6,3.72-11.45,7-16.52a119.22,119.22,0,0,1,17.76-22c6.48-6.12,15.07-11.5,23.8-9.69,5.43,1.12,10,5,13.06,9.6s4.69,10.05,5.93,15.45c2.63,11.48,3.15,24.78-4.52,33.71-2.1,2.44-5.47,4.54-8.41,3.22-1.87-.84-3-2.82-3.61-4.76-2-6-1.3-12.57,0-18.76a105.14,105.14,0,0,1,7.77-23c2.17-4.59,4.73-9.09,8.39-12.6s8.57-6,13.64-5.81c5.87.19,11.08,3.78,15.31,7.85a60.85,60.85,0,0,1,17.83,34.66c.83,5.59.66,11.86-3,16.13a3.5,3.5,0,0,1-1.7,1.22,3.54,3.54,0,0,1-2-.22c-6.69-2.3-10.13-9.57-12.35-16.28q-1.51-4.56-2.72-9.2c-3.41-13.11-5-26.61-6.53-40.07l-5.52-47.83a99.42,99.42,0,0,1-.93-12.9c.12-7.93,2.14-15.7,4.14-23.39" />
      <path class="cls-3"
        d="M90.83,84.17c-2.94,20-1.55,39.86.36,59.84,1,10.39,1.81,20.36-.08,30.71-1.55,8.49-3.24,17-5.54,25.32-2.22,8.09-5.11,16-9.57,23.13a46.39,46.39,0,0,1-3.88,5.45c-.47.58-1.1,1.12-1.53,1.72-.7,1-.33,2.24-.47.38-.32-4.26,2.52-9,4.62-12.47a114.34,114.34,0,0,1,16.84-21.94c5.86-5.89,15-13.42,23.88-9.29,8,3.75,10.87,13.37,12.61,21.3,1.6,7.35,2.47,15.74-.37,22.91-.81,2-4.06,8.69-6.43,6.42-2.73-2.62-1.27-10.93-.73-14.09a91.57,91.57,0,0,1,9.27-27.35c3.94-7.39,11.09-15.75,20.38-11.86,7.58,3.18,13.53,11.15,17.45,18.1s7.05,15.64,6.91,23.82c0,2.1-.78,3.67-1.07,5.64s-1.35,1.08.21,1.22a7,7,0,0,1-2.49-1.51c-3-2.41-4.65-6.44-5.91-9.94-7.62-21.18-8.95-44.31-11.52-66.49-1.25-10.82-2.55-21.63-3.74-32.46-1.28-11.61.32-21.88,3.24-33.12,1.62-6.23-8-8.89-9.65-2.65a141.53,141.53,0,0,0-3.83,18.34c-.87,7.14-.15,14.08.67,21.19q2.31,20.08,4.64,40.18c1.53,13.23,2.87,26.55,5.61,39.6,2.19,10.45,4.74,23.46,12.43,31.46,2.87,3,7.58,6.13,11.94,5.36,5.17-.92,8-7,8.95-11.62,2.11-10.33-1.68-22.09-6.27-31.26-4.68-9.36-12.18-19.22-21.66-24.12-9.93-5.14-21-2.35-28.44,5.7-8.48,9.15-13.1,22.81-15.86,34.74-2,8.84-4.6,24.23,4.44,30.35,9.4,6.36,18.28-5.19,21.1-13,3.51-9.73,2.27-20.75-.17-30.57-2.64-10.6-7.93-21.45-18.63-25.8-11.17-4.55-22.56,1.29-30.9,8.72a113.29,113.29,0,0,0-22.38,28.39c-3.92,6.94-9.81,22.17,1.1,26.2,11.49,4.23,20.34-15.33,23.71-23.21,5.09-11.94,7.69-24.71,10.14-37.39a94.89,94.89,0,0,0,2.13-22.54c-.36-7.83-1.38-15.64-2-23.44-1.35-15.76-2.14-31.72.18-47.42.93-6.3-8.71-9-9.64-2.66Z" />
      <rect class="cls-1" x="59.37" y="4.5" width="128.21" height="80.56" rx="15" />
    </g>
  </g>
</svg>