<svg xmlns="http://www.w3.org/2000/svg" viewBox="0 0 290.52 290.52">
  <defs>
    <style>
      .cls-1 {
        fill: #4f81df;
      }

      .cls-2 {
        fill: none;
      }
    </style>
  </defs>
  <title>icon_home</title>
  <g id="Layer_2" data-name="Layer 2">
    <g id="Layer_1-2" data-name="Layer 1">
      <path class="cls-1"
        d="M155.15,40.13A10.32,10.32,0,0,0,142.73,40L27,131.2c-3.45,2.72-2.68,5,1.72,5H55.45a8,8,0,0,1,8,8V253.94a8,8,0,0,0,8,8h43.29a8,8,0,0,0,8-8V174.17a3.56,3.56,0,0,1,3.68-3.41h48.94a3.55,3.55,0,0,1,3.67,3.41v79.77a8,8,0,0,0,8,8h39.54a8,8,0,0,0,8-8V144.15a8,8,0,0,1,8-8h19.28c4.4,0,5.24-2.31,1.86-5.13Z" />
      <rect class="cls-2" width="290.52" height="290.52" />
    </g>
  </g>
</svg>