<svg xmlns="http://www.w3.org/2000/svg" viewBox="0 0 290.52 290.52">
  <defs>
    <style>
      .cls-1 {
        fill: none;
      }

      .cls-2 {
        fill: #4f81df;
      }
    </style>
  </defs>
  <title>icon_github</title>
  <g id="Layer_2" data-name="Layer 2">
    <g id="Layer_1-2" data-name="Layer 1">
      <rect class="cls-1" width="290.52" height="290.52" />
      <path class="cls-2"
        d="M240.8,92.57a109.84,109.84,0,0,0-40.16-40.15,107.86,107.86,0,0,0-55.38-14.8,107.92,107.92,0,0,0-55.39,14.8A109.81,109.81,0,0,0,49.72,92.57,107.91,107.91,0,0,0,34.92,148a107.18,107.18,0,0,0,21,64.87,108,108,0,0,0,54.37,39.87q3.89.72,5.75-1a5.58,5.58,0,0,0,1.87-4.3c0-.29,0-2.88-.07-7.76s-.08-9.15-.08-12.79l-3.3.57a42.3,42.3,0,0,1-8,.51,60.85,60.85,0,0,1-10-1,22.23,22.23,0,0,1-9.63-4.31,18.28,18.28,0,0,1-6.32-8.83l-1.43-3.31a36,36,0,0,0-4.53-7.32,17.37,17.37,0,0,0-6.25-5.46l-1-.72a10.47,10.47,0,0,1-1.87-1.73,7.82,7.82,0,0,1-1.29-2q-.44-1,.72-1.65a9.31,9.31,0,0,1,4.16-.64l2.87.42a21.25,21.25,0,0,1,7.12,3.45,23.31,23.31,0,0,1,7,7.47,25.33,25.33,0,0,0,8,9,16.91,16.91,0,0,0,9.41,3.09,40.59,40.59,0,0,0,8.19-.72,29,29,0,0,0,6.46-2.15q1.29-9.63,7-14.8a99.07,99.07,0,0,1-14.73-2.59,59,59,0,0,1-13.5-5.6,38.81,38.81,0,0,1-11.57-9.63,46.3,46.3,0,0,1-7.54-15.08,71.88,71.88,0,0,1-2.94-21.56q0-17.38,11.35-29.59-5.33-13.08,1-29.31Q91.38,82,99.57,85.24a86,86,0,0,1,12,5.53c2.53,1.53,4.57,2.83,6.1,3.88a103.87,103.87,0,0,1,55.17,0l5.46-3.45a78,78,0,0,1,13.22-6.32q7.62-2.86,11.64-1.58,6.47,16.24,1.15,29.31,11.34,12.21,11.35,29.6a72.56,72.56,0,0,1-2.95,21.62,44.42,44.42,0,0,1-7.61,15.08,40,40,0,0,1-11.64,9.56,59,59,0,0,1-13.5,5.6,97.79,97.79,0,0,1-14.73,2.59q7.47,6.47,7.47,20.4v30.31a5.73,5.73,0,0,0,1.8,4.31c1.19,1.15,3.09,1.48,5.67,1a108,108,0,0,0,54.38-39.86,107.29,107.29,0,0,0,21-64.87A108.1,108.1,0,0,0,240.8,92.57Z" />
    </g>
  </g>
</svg>