<svg xmlns="http://www.w3.org/2000/svg" viewBox="0 0 290.52 290.52">
  <defs>
    <style>.cls-1{fill:#4f81df;}.cls-2{fill:none;}</style>
  </defs>
  <title>icon_projects</title>
  <g id="Layer_2" data-name="Layer 2">
    <g id="Layer_1-2" data-name="Layer 1">
      <path class="cls-1" d="M156.87,246V137.55a12.82,12.82,0,0,1,7.42-11L255.11,90c4.09-1.64,7.43.62,7.43,5V195.47a12.83,12.83,0,0,1-7.43,11L156.87,246" />
      <path class="cls-1" d="M147.87,246V137.55a12.82,12.82,0,0,0-7.42-11L49.63,90c-4.09-1.64-7.43.62-7.43,5V195.47a12.83,12.83,0,0,0,7.43,11L147.87,246" />
      <rect class="cls-2" width="290.52" height="290.52" />
      <path class="cls-1" d="M53.14,75.88c-4.09,1.63-4.1,4.31,0,6L144,118.36a23.09,23.09,0,0,0,14.85,0l91.8-36.57c4.09-1.63,4.1-4.31,0-6L159.79,39.33a23.09,23.09,0,0,0-14.85,0Z" />
    </g>
  </g>
</svg>