<svg xmlns="http://www.w3.org/2000/svg" viewBox="0 0 186.83 166.36">
  <defs>
    <style>
      .cls-1 {
        fill: #76a4fb;
      }
    </style>
  </defs>
  <title>icon_document_light</title>
  <g id="Layer_2" data-name="Layer 2">
    <g id="Layer_1-2" data-name="Layer 1">
      <path class="cls-1"
        d="M181.83,0H5A5,5,0,0,0,0,5V142.81a5,5,0,0,0,8.28,3.77l17.43-15.16a5,5,0,0,1,6.82.24l26,26a5,5,0,0,0,7.23-.17l5.84-6.43a5,5,0,0,1,7-.36l11.14,10a5,5,0,0,0,6.94-.25L107.87,149a5,5,0,0,1,6.08-.87l29.43,16.81a5,5,0,0,0,5.38-.27L160.92,156a5,5,0,0,1,6,.12l11.87,9.23a5,5,0,0,0,8.07-4V5A5,5,0,0,0,181.83,0Zm-20,113.86H27v-9.17H161.82Zm0-30.66H27V74H161.82Zm0-30.66H27V43.37H161.82Z" />
    </g>
  </g>
</svg>