<svg xmlns="http://www.w3.org/2000/svg" viewBox="0 0 290.52 290.52">
  <defs>
    <style>.cls-1{fill:#f2f4f7;}.cls-2{fill:none;}</style>
  </defs>
  <title>icon_contact_1</title>
  <g id="Layer_2" data-name="Layer 2">
    <g id="Layer_1-2" data-name="Layer 1">
      <path class="cls-1" d="M161,150.93,241.44,74.7H62.3l73.52,75.94C143.91,157.24,152.86,157.53,161,150.93Z" />
      <rect class="cls-2" width="290.52" height="290.52" />
      <path class="cls-1" d="M254,76.31c-2,0-6.85,3.09-10.85,6.88l-73.81,69.9a58.4,58.4,0,0,1-16.61,10.34c-5.14,1.9-21.36-7-25.18-11l-66.77-69C57,79.54,52.11,76.31,50,76.31s-3.85,4.5-3.85,10v119.5a10,10,0,0,0,10,10H247.6a10,10,0,0,0,10-10V86.31C257.6,80.81,256,76.31,254,76.31Z" />
    </g>
  </g>
</svg>