<svg xmlns="http://www.w3.org/2000/svg" viewBox="0 0 434.21 423.59">
  <defs>
    <style>.cls-1{fill:#4f81df;}</style>
  </defs>
  <title>icon_github</title>
  <g id="Layer_2" data-name="Layer 2">
    <g id="Layer_1-2" data-name="Layer 1">
      <path class="cls-1" d="M405.09,108.13a216.15,216.15,0,0,0-79-79Q276.18,0,217.1,0t-109,29.12a216,216,0,0,0-79,79Q0,158,0,217.1,0,288,41.41,344.73t107,78.44c5.09.95,8.85.28,11.3-2a11,11,0,0,0,3.68-8.47c0-.57,0-5.65-.14-15.27s-.15-18-.15-25.15l-6.5,1.12a82.92,82.92,0,0,1-15.69,1,119.62,119.62,0,0,1-19.64-2,43.94,43.94,0,0,1-19-8.47,35.94,35.94,0,0,1-12.43-17.38l-2.83-6.51a70.44,70.44,0,0,0-8.9-14.41q-6.07-7.92-12.3-10.74l-2-1.42a20.87,20.87,0,0,1-3.67-3.4,15.22,15.22,0,0,1-2.54-4c-.57-1.33-.1-2.41,1.41-3.26s4.24-1.26,8.2-1.26l5.65.84q5.66,1.14,14,6.78A45.61,45.61,0,0,1,100.63,324q6.51,11.6,15.69,17.67t18.52,6.08A81,81,0,0,0,151,346.29,56.27,56.27,0,0,0,163.67,342q2.54-18.94,13.85-29.11a193.93,193.93,0,0,1-29-5.09,115.87,115.87,0,0,1-26.57-11,76.14,76.14,0,0,1-22.75-18.94q-9-11.31-14.84-29.68t-5.8-42.41q0-34.2,22.34-58.23-10.47-25.73,2-57.66,8.2-2.55,24.32,3.81t23.6,10.89q7.5,4.51,12,7.63a204.1,204.1,0,0,1,108.56,0l10.74-6.78a151.76,151.76,0,0,1,26-12.45q15-5.64,22.9-3.1,12.72,31.94,2.26,57.66,22.32,24,22.33,58.24,0,24-5.79,42.54t-15,29.68a79,79,0,0,1-22.9,18.8,115.37,115.37,0,0,1-26.57,11,192.6,192.6,0,0,1-29,5.1q14.7,12.72,14.7,40.14v59.64a11.29,11.29,0,0,0,3.53,8.48c2.36,2.25,6.08,2.92,11.17,2q65.58-21.77,107-78.44t41.41-127.63Q434.2,158,405.09,108.13Z" />
    </g>
  </g>
</svg>